<?xml version="1.0" standalone="no"?>
<svg xmlns:xlink="http://www.w3.org/1999/xlink" id="wave" style="transform:rotate(0deg); transition: 0.3s" viewBox="0 0 1440 100" version="1.1" xmlns="http://www.w3.org/2000/svg"><defs><linearGradient id="sw-gradient-0" x1="0" x2="0" y1="1" y2="0"><stop stop-color="rgba(243, 106, 62, 1)" offset="0%"/><stop stop-color="rgba(255, 179, 11, 1)" offset="100%"/></linearGradient></defs><path style="transform:translate(0, 0px); opacity:1" fill="url(#sw-gradient-0)" d="M0,20L20,18.3C40,17,80,13,120,11.7C160,10,200,10,240,10C280,10,320,10,360,10C400,10,440,10,480,13.3C520,17,560,23,600,26.7C640,30,680,30,720,26.7C760,23,800,17,840,25C880,33,920,57,960,60C1000,63,1040,47,1080,43.3C1120,40,1160,50,1200,45C1240,40,1280,20,1320,10C1360,0,1400,0,1440,15C1480,30,1520,60,1560,65C1600,70,1640,50,1680,35C1720,20,1760,10,1800,5C1840,0,1880,0,1920,15C1960,30,2000,60,2040,75C2080,90,2120,90,2160,81.7C2200,73,2240,57,2280,55C2320,53,2360,67,2400,75C2440,83,2480,87,2520,81.7C2560,77,2600,63,2640,53.3C2680,43,2720,37,2760,43.3C2800,50,2840,70,2860,80L2880,90L2880,100L2860,100C2840,100,2800,100,2760,100C2720,100,2680,100,2640,100C2600,100,2560,100,2520,100C2480,100,2440,100,2400,100C2360,100,2320,100,2280,100C2240,100,2200,100,2160,100C2120,100,2080,100,2040,100C2000,100,1960,100,1920,100C1880,100,1840,100,1800,100C1760,100,1720,100,1680,100C1640,100,1600,100,1560,100C1520,100,1480,100,1440,100C1400,100,1360,100,1320,100C1280,100,1240,100,1200,100C1160,100,1120,100,1080,100C1040,100,1000,100,960,100C920,100,880,100,840,100C800,100,760,100,720,100C680,100,640,100,600,100C560,100,520,100,480,100C440,100,400,100,360,100C320,100,280,100,240,100C200,100,160,100,120,100C80,100,40,100,20,100L0,100Z"/></svg>